<svg width="150" height="40" viewBox="0 0 150 40" fill="none" xmlns="http://www.w3.org/2000/svg">
  <path d="M20 5H5V35H20C28.2843 35 35 28.2843 35 20C35 11.7157 28.2843 5 20 5Z" fill="#39AFFF"/>
  <path d="M20 10H10V30H20C25.5228 30 30 25.5228 30 20C30 14.4772 25.5228 10 20 10Z" fill="white"/>
  <path d="M45 10H60V15H50V18H58V23H50V30H45V10Z" fill="#212121"/>
  <path d="M62 10H67V25H77V30H62V10Z" fill="#212121"/>
  <path d="M80 10H85V20H93V10H98V30H93V25H85V30H80V10Z" fill="#212121"/>
  <path d="M100 10H115V15H105V18H113V23H105V25H115V30H100V10Z" fill="#212121"/>
  <path d="M120 10H125V25H135V30H120V10Z" fill="#212121"/>
  <path d="M138 10H143V30H138V10Z" fill="#39AFFF"/>
</svg>
