<svg xmlns="http://www.w3.org/2000/svg" viewBox="0 0 48 48" width="48" height="48">
  <path fill="#39AFFF" d="M42,8H6c-1.1,0-2,0.9-2,2v4c0,1.1,0.9,2,2,2h36c1.1,0,2-0.9,2-2v-4C44,8.9,43.1,8,42,8z"/>
  <path fill="#39AFFF" opacity="0.8" d="M38,18H10c-0.55,0-1,0.45-1,1v4c0,0.55,0.45,1,1,1h28c0.55,0,1-0.45,1-1v-4C39,18.45,38.55,18,38,18z"/>
  <path fill="#39AFFF" opacity="0.6" d="M34,26H14c-0.55,0-1,0.45-1,1v4c0,0.55,0.45,1,1,1h20c0.55,0,1-0.45,1-1v-4C35,26.45,34.55,26,34,26z"/>
  <path fill="#39AFFF" opacity="0.4" d="M30,34H18c-0.55,0-1,0.45-1,1v4c0,0.55,0.45,1,1,1h12c0.55,0,1-0.45,1-1v-4C31,34.45,30.55,34,30,34z"/>
  <circle cx="24" cy="40" r="2" fill="#212121"/>
  <path fill="#212121" d="M28,16l-4-4l-4,4h2v12h4V16H28z"/>
</svg>
