<svg xmlns="http://www.w3.org/2000/svg" viewBox="0 0 48 48" width="48" height="48">
  <circle cx="24" cy="24" r="20" fill="#F7F7F7"/>
  <path fill="#39AFFF" d="M24,6C14.06,6,6,14.06,6,24s8.06,18,18,18s18-8.06,18-18S33.94,6,24,6z M24,38c-7.73,0-14-6.27-14-14s6.27-14,14-14s14,6.27,14,14S31.73,38,24,38z"/>
  <path fill="#212121" d="M24,14c-1.1,0-2,0.9-2,2s0.9,2,2,2s2-0.9,2-2S25.1,14,24,14z"/>
  <path fill="#212121" d="M24,20c-1.1,0-2,0.9-2,2v8c0,1.1,0.9,2,2,2s2-0.9,2-2v-8C26,20.9,25.1,20,24,20z"/>
  <path fill="#39AFFF" d="M32,22h-3c-0.55,0-1,0.45-1,1v6c0,0.55,0.45,1,1,1h3c0.55,0,1-0.45,1-1v-6C33,22.45,32.55,22,32,22z"/>
  <path fill="#39AFFF" d="M19,25h-3c-0.55,0-1,0.45-1,1v3c0,0.55,0.45,1,1,1h3c0.55,0,1-0.45,1-1v-3C20,25.45,19.55,25,19,25z"/>
  <path fill="#212121" d="M34,32H14c-1.1,0-2,0.9-2,2s0.9,2,2,2h20c1.1,0,2-0.9,2-2S35.1,32,34,32z"/>
</svg>
