<svg xmlns="http://www.w3.org/2000/svg" viewBox="0 0 48 48" width="48" height="48">
  <rect x="6" y="10" width="36" height="28" rx="2" ry="2" fill="#F7F7F7" stroke="#212121" stroke-width="1"/>
  <path fill="#39AFFF" d="M10,16v16h8V16H10z M16,30h-4v-2h4V30z M16,26h-4v-2h4V26z M16,22h-4v-2h4V22z"/>
  <path fill="#39AFFF" d="M20,16v16h8V16H20z M26,30h-4v-2h4V30z M26,26h-4v-2h4V26z M26,22h-4v-2h4V22z"/>
  <path fill="#39AFFF" d="M30,16v16h8V16H30z M36,30h-4v-2h4V30z M36,26h-4v-2h4V26z M36,22h-4v-2h4V22z"/>
  <path fill="#212121" d="M42,8H6C4.9,8,4,8.9,4,10v2h40v-2C44,8.9,43.1,8,42,8z"/>
  <circle cx="8" cy="10" r="1" fill="#F7F7F7"/>
  <circle cx="12" cy="10" r="1" fill="#F7F7F7"/>
  <circle cx="16" cy="10" r="1" fill="#F7F7F7"/>
  <path fill="#212121" d="M24,34l-4,4l-4-4h2v-4h4v4H24z"/>
  <path fill="#212121" d="M32,34l-4,4l-4-4h2v-4h4v4H32z"/>
</svg>
