<svg xmlns="http://www.w3.org/2000/svg" viewBox="0 0 48 48" width="48" height="48">
  <path fill="#39AFFF" d="M24,4C12.95,4,4,12.95,4,24c0,3.77,1.04,7.3,2.86,10.3L4.69,42.73l8.43-2.17C16.12,42.14,19.92,44,24,44c11.05,0,20-8.95,20-20S35.05,4,24,4z M24,40c-3.65,0-7.06-1.14-9.86-3.08l-0.7-0.42l-7.28,1.87l1.88-6.88l-0.46-0.73C6.17,28.04,5,25.15,5,22c0-10.48,8.52-19,19-19s19,8.52,19,19S34.48,40,24,40z"/>
  <path fill="#39AFFF" d="M35,26.3c-0.47-0.24-2.8-1.38-3.24-1.53c-0.44-0.15-0.76-0.23-1.09,0.23c-0.33,0.46-1.26,1.53-1.54,1.84c-0.28,0.31-0.57,0.35-1.04,0.12c-0.47-0.24-2-0.74-3.81-2.35c-1.41-1.26-2.36-2.81-2.64-3.28c-0.28-0.47-0.03-0.72,0.21-0.95c0.22-0.21,0.47-0.54,0.71-0.81c0.24-0.27,0.31-0.46,0.47-0.77c0.16-0.31,0.08-0.58-0.04-0.81c-0.12-0.23-1.09-2.64-1.5-3.61c-0.39-0.95-0.79-0.82-1.09-0.83c-0.28-0.01-0.6-0.01-0.92-0.01c-0.32,0-0.84,0.12-1.28,0.58c-0.44,0.46-1.69,1.65-1.69,4.03c0,2.38,1.73,4.68,1.97,5c0.24,0.32,3.43,5.24,8.31,7.35c1.16,0.5,2.07,0.8,2.77,1.03c1.17,0.37,2.23,0.32,3.07,0.19c0.94-0.14,2.8-1.15,3.2-2.25c0.4-1.1,0.4-2.05,0.28-2.25C35.8,26.65,35.47,26.53,35,26.3z"/>
</svg>
